<svg width="333" height="43" viewBox="0 0 333 43" fill="none" xmlns="http://www.w3.org/2000/svg">
<path d="M6.252 6.896H5.184C5.244 6.38 5.28 5.852 5.28 5.288H0.984V6.548H3.708C3.504 8.708 2.544 10.304 0.36 11.636L1.26 12.74C3.324 11.516 4.428 9.98 4.92 8.156H6.252V9.656H4.716V10.928H6.252V14.552H7.728V4.22H6.252V6.896ZM8.52 3.968V15.032H10.02V3.968H8.52ZM17.1451 6.644V7.928H18.8011V10.556H20.3851V3.98H18.8011V6.644H17.1451ZM17.8051 9.02C16.1251 8.468 15.3571 7.172 15.3091 5.912H17.4571V4.64H11.5171V5.912H13.6891C13.6411 7.292 12.8371 8.696 11.0851 9.308L11.8891 10.556C13.1731 10.124 14.0491 9.224 14.5291 8.108C15.0091 9.08 15.8371 9.86 17.0371 10.256L17.8051 9.02ZM16.6531 13.844C15.2011 13.844 14.4451 13.544 14.4451 12.92C14.4451 12.296 15.2011 11.996 16.6531 11.996C18.0931 11.996 18.8491 12.296 18.8491 12.92C18.8491 13.544 18.0931 13.844 16.6531 13.844ZM16.6531 10.796C14.3011 10.796 12.8611 11.576 12.8611 12.92C12.8611 14.264 14.3011 15.044 16.6531 15.044C18.9931 15.044 20.4331 14.264 20.4331 12.92C20.4331 11.576 18.9931 10.796 16.6531 10.796ZM31.1389 7.94H32.0029V10.736H33.5029V3.98H32.0029V6.668H31.1389V4.184H29.6629V10.388H31.1389V7.94ZM29.6509 8.888C28.1989 8.3 27.5989 7.112 27.5989 5.924V4.64H26.0749V5.924C26.0749 7.172 25.4749 8.54 23.9269 9.212L24.7669 10.436C25.7869 10.004 26.4709 9.212 26.8669 8.276C27.2629 9.068 27.8989 9.728 28.8109 10.088L29.6509 8.888ZM29.7589 13.844C28.3189 13.844 27.5269 13.556 27.5269 12.968C27.5269 12.38 28.3189 12.092 29.7589 12.092C31.1749 12.092 31.9669 12.38 31.9669 12.968C31.9669 13.556 31.1749 13.844 29.7589 13.844ZM29.7589 10.904C27.4309 10.904 25.9429 11.684 25.9429 12.968C25.9429 14.264 27.4309 15.044 29.7589 15.044C32.0749 15.044 33.5509 14.264 33.5509 12.968C33.5509 11.684 32.0749 10.904 29.7589 10.904ZM42.3679 10.46H43.9519V3.98H42.3679V5.996H40.3519V7.28H42.3679V10.46ZM41.3599 8.864C39.6079 8.3 38.8879 6.956 38.8879 5.468V4.556H37.2799V5.54C37.2799 7.064 36.4999 8.564 34.6159 9.164L35.4439 10.436C36.7519 9.992 37.6279 9.104 38.1199 7.976C38.5879 8.96 39.3679 9.716 40.5319 10.112L41.3599 8.864ZM40.2199 13.82C38.7679 13.82 38.0119 13.52 38.0119 12.896C38.0119 12.26 38.7679 11.96 40.2199 11.96C41.6599 11.96 42.4159 12.26 42.4159 12.896C42.4159 13.52 41.6599 13.82 40.2199 13.82ZM40.2199 10.736C37.8679 10.736 36.4279 11.528 36.4279 12.896C36.4279 14.24 37.8679 15.032 40.2199 15.032C42.5599 15.032 43.9999 14.24 43.9999 12.896C43.9999 11.528 42.5599 10.736 40.2199 10.736Z" fill="#50BB1D"/>
<line x1="33" y1="32" x2="114" y2="32" stroke="#E6E6E6" stroke-width="4"/>
<circle cx="23" cy="32" r="10" fill="#50BB1D"/>
<line x1="132" y1="32" x2="213" y2="32" stroke="#E6E6E6" stroke-width="4"/>
<circle cx="123" cy="32" r="10" fill="#E5E5E5"/>
<circle cx="323" cy="32" r="10" fill="#E5E5E5"/>
<line x1="232" y1="33" x2="313" y2="33" stroke="#E6E6E6" stroke-width="4"/>
<circle cx="223" cy="33" r="10" fill="#E5E5E5"/>
</svg>
