<svg width="333" height="43" viewBox="0 0 333 43" fill="none" xmlns="http://www.w3.org/2000/svg">
<line x1="33" y1="32" x2="114" y2="32" stroke="#50BB1D" stroke-width="4"/>
<circle cx="23" cy="32" r="10" fill="#50BB1D"/>
<line x1="132" y1="32" x2="213" y2="32" stroke="#E6E6E6" stroke-width="4"/>
<circle cx="123" cy="32" r="9.5" fill="#50BB1D" stroke="#50BB1D"/>
<circle cx="323" cy="32" r="10" fill="#E5E5E5"/>
<line x1="232" y1="33" x2="313" y2="33" stroke="#E6E6E6" stroke-width="4"/>
<circle cx="223" cy="33" r="10" fill="#E5E5E5"/>
<path d="M6.252 6.896H5.184C5.244 6.38 5.28 5.852 5.28 5.288H0.984V6.548H3.708C3.504 8.708 2.544 10.304 0.36 11.636L1.26 12.74C3.324 11.516 4.428 9.98 4.92 8.156H6.252V9.656H4.716V10.928H6.252V14.552H7.728V4.22H6.252V6.896ZM8.52 3.968V15.032H10.02V3.968H8.52ZM17.1451 6.644V7.928H18.8011V10.556H20.3851V3.98H18.8011V6.644H17.1451ZM17.8051 9.02C16.1251 8.468 15.3571 7.172 15.3091 5.912H17.4571V4.64H11.5171V5.912H13.6891C13.6411 7.292 12.8371 8.696 11.0851 9.308L11.8891 10.556C13.1731 10.124 14.0491 9.224 14.5291 8.108C15.0091 9.08 15.8371 9.86 17.0371 10.256L17.8051 9.02ZM16.6531 13.844C15.2011 13.844 14.4451 13.544 14.4451 12.92C14.4451 12.296 15.2011 11.996 16.6531 11.996C18.0931 11.996 18.8491 12.296 18.8491 12.92C18.8491 13.544 18.0931 13.844 16.6531 13.844ZM16.6531 10.796C14.3011 10.796 12.8611 11.576 12.8611 12.92C12.8611 14.264 14.3011 15.044 16.6531 15.044C18.9931 15.044 20.4331 14.264 20.4331 12.92C20.4331 11.576 18.9931 10.796 16.6531 10.796ZM31.1389 7.94H32.0029V10.736H33.5029V3.98H32.0029V6.668H31.1389V4.184H29.6629V10.388H31.1389V7.94ZM29.6509 8.888C28.1989 8.3 27.5989 7.112 27.5989 5.924V4.64H26.0749V5.924C26.0749 7.172 25.4749 8.54 23.9269 9.212L24.7669 10.436C25.7869 10.004 26.4709 9.212 26.8669 8.276C27.2629 9.068 27.8989 9.728 28.8109 10.088L29.6509 8.888ZM29.7589 13.844C28.3189 13.844 27.5269 13.556 27.5269 12.968C27.5269 12.38 28.3189 12.092 29.7589 12.092C31.1749 12.092 31.9669 12.38 31.9669 12.968C31.9669 13.556 31.1749 13.844 29.7589 13.844ZM29.7589 10.904C27.4309 10.904 25.9429 11.684 25.9429 12.968C25.9429 14.264 27.4309 15.044 29.7589 15.044C32.0749 15.044 33.5509 14.264 33.5509 12.968C33.5509 11.684 32.0749 10.904 29.7589 10.904ZM42.3679 10.46H43.9519V3.98H42.3679V5.996H40.3519V7.28H42.3679V10.46ZM41.3599 8.864C39.6079 8.3 38.8879 6.956 38.8879 5.468V4.556H37.2799V5.54C37.2799 7.064 36.4999 8.564 34.6159 9.164L35.4439 10.436C36.7519 9.992 37.6279 9.104 38.1199 7.976C38.5879 8.96 39.3679 9.716 40.5319 10.112L41.3599 8.864ZM40.2199 13.82C38.7679 13.82 38.0119 13.52 38.0119 12.896C38.0119 12.26 38.7679 11.96 40.2199 11.96C41.6599 11.96 42.4159 12.26 42.4159 12.896C42.4159 13.52 41.6599 13.82 40.2199 13.82ZM40.2199 10.736C37.8679 10.736 36.4279 11.528 36.4279 12.896C36.4279 14.24 37.8679 15.032 40.2199 15.032C42.5599 15.032 43.9999 14.24 43.9999 12.896C43.9999 11.528 42.5599 10.736 40.2199 10.736Z" fill="#50BB1D"/>
<path d="M105.17 6.344H107.451V5.036H101.258V6.344H103.562V6.956C103.562 8.84 102.662 10.868 100.814 11.696L101.714 12.956C103.01 12.368 103.898 11.156 104.39 9.716C104.883 11.048 105.758 12.128 107.042 12.68L107.907 11.432C106.058 10.664 105.17 8.756 105.17 6.956V6.344ZM108.47 3.98V15.032H110.055V3.98H108.47ZM113.244 12.272H119.184V15.044H120.768V11.024H113.244V12.272ZM117.432 7.868C117.468 7.676 117.492 7.484 117.492 7.292C117.492 7.088 117.468 6.908 117.432 6.728H119.184V7.868H117.432ZM114.576 8.684C113.772 8.684 113.172 8.168 113.172 7.292C113.172 6.428 113.772 5.912 114.576 5.912C115.392 5.912 115.992 6.428 115.992 7.292C115.992 8.168 115.392 8.684 114.576 8.684ZM119.184 3.98V5.468H116.796C116.268 4.904 115.476 4.556 114.576 4.556C112.944 4.556 111.672 5.708 111.672 7.292C111.672 8.888 112.944 10.04 114.576 10.04C115.464 10.04 116.256 9.692 116.784 9.128H119.184V10.52H120.768V3.98H119.184ZM132.121 9.596H133.705V3.98H132.121V5.6H130.105V6.86H132.121V9.596ZM131.065 8.252C129.337 7.724 128.581 6.44 128.581 5.132V4.34H126.985V5.132C126.985 6.536 126.217 7.892 124.381 8.444L125.197 9.68C126.457 9.284 127.321 8.468 127.813 7.436C128.281 8.36 129.097 9.092 130.261 9.464L131.065 8.252ZM127.993 13.676V13.028H133.705V10.064H126.421V11.276H132.145V11.888H126.433V14.912H134.017V13.676H127.993ZM141.094 6.644V7.928H142.75V10.556H144.334V3.98H142.75V6.644H141.094ZM141.754 9.02C140.074 8.468 139.306 7.172 139.258 5.912H141.406V4.64H135.466V5.912H137.638C137.59 7.292 136.786 8.696 135.034 9.308L135.838 10.556C137.122 10.124 137.998 9.224 138.478 8.108C138.958 9.08 139.786 9.86 140.986 10.256L141.754 9.02ZM140.602 13.844C139.15 13.844 138.394 13.544 138.394 12.92C138.394 12.296 139.15 11.996 140.602 11.996C142.042 11.996 142.798 12.296 142.798 12.92C142.798 13.544 142.042 13.844 140.602 13.844ZM140.602 10.796C138.25 10.796 136.81 11.576 136.81 12.92C136.81 14.264 138.25 15.044 140.602 15.044C142.942 15.044 144.382 14.264 144.382 12.92C144.382 11.576 142.942 10.796 140.602 10.796Z" fill="#50BB1D"/>
</svg>
